<svg xmlns="http://www.w3.org/2000/svg" width="348" height="303" viewBox="0 0 348 303" version="1.1"><path d="M 208.403 19.082 C 207.800 19.862, 205.606 24.775, 203.527 30 C 198.886 41.665, 188.223 67.772, 186.985 70.500 C 186.485 71.600, 182.273 81.950, 177.623 93.500 C 172.974 105.050, 167.523 118.325, 165.511 123 C 163.499 127.675, 161.830 132.478, 161.802 133.674 C 161.773 134.870, 163.166 139.249, 164.896 143.405 L 168.042 150.963 163.740 161.217 L 159.438 171.471 153.469 174.558 C 150.186 176.256, 133.100 185.005, 115.500 193.999 C 63.089 220.784, 63.983 220.292, 63.370 222.697 C 62.806 224.907, 64.452 228.482, 76.174 250.509 C 83.999 265.215, 83.602 264.678, 85.697 263.399 C 89.227 261.244, 88.393 257.488, 81.460 244.312 C 75.371 232.741, 74.936 231.520, 76.490 230.383 C 77.428 229.698, 78.713 229.341, 79.347 229.591 C 79.981 229.840, 83.425 235.919, 87 243.098 C 90.575 250.278, 93.881 256.396, 94.346 256.694 C 94.811 256.993, 95.799 256.621, 96.542 255.868 C 97.677 254.717, 96.793 252.333, 90.973 240.849 C 85.306 229.666, 84.301 226.995, 85.416 226.070 C 86.974 224.776, 88.721 227.432, 96.390 242.750 C 99.902 249.766, 101.501 252, 103.010 252 C 104.105 252, 105 251.492, 105 250.871 C 105 250.249, 102.075 243.974, 98.500 236.926 C 91.732 223.582, 91.175 221.999, 93.250 222.001 C 93.938 222.002, 97.626 228.077, 101.448 235.501 C 107.976 248.186, 110.311 250.960, 111.610 247.574 C 111.911 246.790, 109.132 240.240, 105.434 233.019 C 100.385 223.159, 98.996 219.604, 99.855 218.745 C 101.442 217.158, 101.854 217.742, 109.130 231.871 C 115.423 244.094, 117.161 246.239, 119.155 244.245 C 119.849 243.551, 117.921 238.802, 113.127 229.397 C 106.474 216.345, 105.887 214.096, 109.113 214.015 C 109.451 214.007, 112.826 220.073, 116.613 227.495 C 121.347 236.770, 124.029 240.991, 125.191 240.995 C 126.121 240.998, 127.102 240.645, 127.370 240.210 C 127.638 239.776, 124.698 233.202, 120.837 225.603 C 115.528 215.156, 114.098 211.506, 114.975 210.642 C 116.534 209.107, 117.595 210.649, 125.108 225.371 L 131.249 237.406 129.410 242.453 C 126.914 249.299, 126.957 260.816, 129.503 267.806 C 131.837 274.214, 138.670 281.501, 144.815 284.135 C 147.729 285.384, 151.563 286, 156.423 286 C 162.500 286, 164.666 285.508, 169.738 282.973 C 177.020 279.334, 183.233 272.868, 186.840 265.175 C 189.164 260.216, 189.500 258.239, 189.500 249.500 C 189.500 239.905, 189.351 239.217, 185.810 232.500 C 180.441 222.315, 177.710 214.890, 178.898 213.702 C 179.551 213.049, 179.106 211.146, 177.588 208.106 C 175.067 203.058, 173.587 196, 175.050 196 C 175.559 196, 177.561 199.150, 179.500 203 C 182.086 208.136, 183.554 210, 185.013 210 C 186.106 210, 187 209.492, 187 208.871 C 187 208.249, 184.075 201.974, 180.500 194.926 C 176.925 187.877, 174 181.636, 174 181.055 C 174 180.475, 174.787 180.011, 175.750 180.025 C 176.986 180.043, 179.409 183.883, 184 193.101 C 187.575 200.278, 190.881 206.395, 191.346 206.694 C 191.811 206.992, 192.801 206.621, 193.546 205.868 C 194.687 204.716, 193.806 202.343, 187.950 190.809 C 183.570 182.181, 181.394 176.874, 182.066 176.459 C 183.585 175.520, 183.768 175.791, 191.060 189.760 C 194.683 196.703, 198.065 202.514, 198.574 202.675 C 199.083 202.836, 200.120 202.575, 200.878 202.096 C 201.971 201.404, 200.780 198.376, 195.110 187.432 C 189.778 177.142, 188.285 173.436, 189.232 172.836 C 189.929 172.393, 190.736 172.024, 191.024 172.015 C 191.312 172.007, 194.668 178.075, 198.482 185.500 C 203.480 195.232, 205.916 199, 207.208 199 C 210.114 199, 209.366 196.545, 202.304 182.915 C 197.110 172.889, 195.877 169.723, 196.804 168.796 C 198.487 167.113, 198.988 167.807, 206.508 182.236 C 210.160 189.241, 213.513 195.199, 213.960 195.475 C 214.407 195.752, 215.316 195.324, 215.979 194.525 C 216.955 193.349, 215.916 190.576, 210.516 179.957 C 204.483 168.092, 203.277 164, 205.816 164 C 206.299 164, 209.801 170.070, 213.597 177.489 C 220.024 190.048, 222.106 192.561, 224.282 190.385 C 224.621 190.046, 221.807 183.600, 218.031 176.061 C 213.318 166.654, 211.439 161.908, 212.040 160.935 C 213.290 158.913, 213.910 159.803, 221.501 174.500 C 225.194 181.650, 228.403 187.698, 228.632 187.940 C 228.860 188.183, 229.753 187.676, 230.614 186.814 C 232.037 185.392, 231.574 184.050, 225.591 172.253 C 218.647 158.563, 218.014 156.653, 220.594 157.177 C 221.471 157.355, 225.183 163.204, 228.844 170.175 C 232.505 177.147, 235.827 183.173, 236.226 183.568 C 236.625 183.962, 237.632 183.720, 238.464 183.030 C 239.783 181.935, 239.078 180.027, 232.980 168.181 C 227.064 156.687, 226.194 154.377, 227.350 153.221 C 228.962 151.610, 229.642 152.628, 238.058 169.245 C 243.236 179.470, 245.375 181.793, 246.621 178.546 C 246.927 177.747, 244.213 171.247, 240.589 164.102 C 236.965 156.956, 234 150.636, 234 150.055 C 234 149.475, 234.787 149.007, 235.750 149.016 C 236.988 149.027, 239.440 152.895, 244.126 162.225 C 247.771 169.481, 251.146 175.541, 251.626 175.692 C 252.107 175.844, 253.131 175.568, 253.903 175.080 C 255.030 174.367, 253.895 171.425, 248.112 160.081 C 242.110 148.307, 241.184 145.867, 242.526 145.352 C 244.710 144.513, 244.911 144.798, 251.943 158.727 C 255.338 165.451, 258.536 171.213, 259.050 171.531 C 259.564 171.848, 260.683 171.717, 261.538 171.239 C 262.852 170.504, 262.004 168.243, 256.046 156.589 C 252.170 149.010, 249.251 142.402, 249.559 141.905 C 251.047 139.496, 253.033 142.055, 259.336 154.501 C 265.788 167.241, 268.242 170.139, 269.594 166.616 C 269.886 165.855, 267.131 159.353, 263.472 152.167 C 257.572 140.582, 256.117 135.718, 259.102 137.563 C 259.631 137.890, 262.961 143.937, 266.500 151 C 270.039 158.063, 273.349 164.097, 273.854 164.410 C 274.360 164.722, 275.321 164.318, 275.990 163.512 C 276.980 162.319, 275.966 159.608, 270.535 148.921 C 264.418 136.884, 263.291 133, 265.916 133 C 266.454 133, 269.955 139.070, 273.696 146.488 C 277.436 153.907, 280.988 160.165, 281.589 160.396 C 282.190 160.626, 283.274 160.449, 283.999 160.001 C 285.009 159.376, 283.721 156.060, 278.478 145.783 C 273.721 136.457, 271.859 131.811, 272.357 130.512 C 273.421 127.740, 274.863 129.662, 281.423 142.593 C 288.741 157.019, 289.323 157.807, 291.387 156.094 C 292.825 154.900, 292.271 153.386, 285.976 141.316 C 282.119 133.920, 279.223 127.448, 279.541 126.934 C 281.044 124.501, 283.012 127.014, 289.387 139.505 C 293.174 146.927, 296.549 152.993, 296.887 152.985 C 297.224 152.976, 298.175 152.535, 299 152.004 C 300.260 151.194, 299.335 148.792, 293.218 137 C 287.175 125.352, 286.208 122.857, 287.535 122.348 C 289.733 121.505, 290.026 121.909, 297.052 135.500 C 304.309 149.537, 304.438 149.711, 306.419 148.067 C 307.726 146.983, 307.017 145.011, 301 133 C 294.983 120.989, 294.274 119.017, 295.581 117.933 C 297.640 116.224, 298.130 116.856, 304.853 129.882 C 311.330 142.433, 313.186 145.007, 315.740 144.985 C 320.411 144.944, 320.094 143.635, 310.890 124.948 C 301.814 106.519, 298.923 102, 296.211 102 C 295.419 102, 287.960 105.543, 279.636 109.873 C 271.311 114.203, 251.675 124.295, 236 132.299 C 220.325 140.303, 200.667 150.364, 192.316 154.658 C 183.965 158.952, 176.860 162.193, 176.527 161.860 C 176.194 161.527, 176.872 157.710, 178.034 153.378 C 180.501 144.172, 182.709 135.342, 190.880 102 C 194.182 88.525, 199.859 65.403, 203.495 50.618 C 209.651 25.590, 211.233 15.425, 208.403 19.082 M 266.500 90.435 C 258.250 93.882, 244.075 99.719, 235 103.406 C 225.925 107.093, 217.600 110.523, 216.500 111.028 C 215.400 111.533, 209.325 114.028, 203 116.572 C 196.675 119.116, 191.122 121.553, 190.660 121.989 C 189.662 122.929, 184.763 142.790, 185.204 144.111 C 185.371 144.613, 208.097 131.665, 235.705 115.337 C 263.313 99.008, 285.672 85.278, 285.391 84.824 C 284.443 83.290, 281.535 84.153, 266.500 90.435 M 168.408 132.500 C 166.891 134.816, 166.891 135.184, 168.408 137.500 C 170.356 140.472, 173.985 140.779, 176.345 138.171 C 178.496 135.794, 178.440 133.709, 176.171 131.655 C 173.530 129.265, 170.297 129.617, 168.408 132.500 M 54.487 137.799 C 42.660 141.889, 35.331 148.481, 30.522 159.355 C 24.287 173.454, 30.171 190.010, 43.792 196.696 C 48.807 199.157, 50.593 199.490, 58.500 199.434 C 68.507 199.364, 72.548 197.963, 85.268 190.155 C 88.990 187.870, 92.257 186, 92.529 186 C 92.800 186, 96.504 183.826, 100.761 181.170 C 105.017 178.513, 119.075 170.120, 132 162.518 C 163.637 143.911, 161.323 145.710, 159.436 141.190 C 158.589 139.161, 157.549 137.152, 157.125 136.727 C 156.701 136.302, 153.912 137.015, 150.927 138.312 C 138.680 143.635, 133.666 144.491, 115 144.445 C 96.695 144.400, 91.250 143.509, 75.775 138.028 C 68.816 135.563, 61.190 135.481, 54.487 137.799 M 58.275 146.971 C 52.318 148.386, 45.535 153.761, 41.201 160.500 C 39.123 163.732, 38.616 165.779, 38.564 171.156 C 38.506 177.159, 38.805 178.190, 41.606 181.656 C 46.494 187.704, 50.368 189.501, 58.500 189.491 C 67.030 189.480, 73.403 186.622, 78.951 180.319 C 93.633 163.639, 80.086 141.789, 58.275 146.971 M 144.079 195.951 C 142.877 196.694, 142.940 197.259, 144.483 199.615 L 146.308 202.400 147.188 200.020 C 148.255 197.137, 146.300 194.578, 144.079 195.951 M 136.589 199.856 C 135.949 200.892, 141.020 211, 142.180 211 C 143.678 211, 143.029 207.243, 140.814 203.095 C 138.640 199.021, 137.598 198.223, 136.589 199.856 M 128.726 203.607 C 127.935 204.398, 136.399 220.300, 137.873 220.791 C 140.001 221.500, 138.996 216.942, 135.487 209.975 C 132.304 203.654, 130.438 201.896, 128.726 203.607 M 122 208.017 C 122 210.263, 133.125 231.041, 134.029 230.482 C 134.563 230.152, 135 229.415, 135 228.844 C 135 226.625, 124.456 207, 123.263 207 C 122.568 207, 122 207.457, 122 208.017 M 156.224 229.509 C 148.388 231.883, 143.247 236.357, 139.855 243.751 C 135.750 252.702, 136.467 262.386, 141.743 269.242 C 145.336 273.912, 149.834 276, 156.299 276 C 168.815 276, 178.901 265.386, 179.825 251.240 C 180.825 235.933, 169.484 225.491, 156.224 229.509" stroke="none" fill="#000000" fill-rule="evenodd"/><path d="M 203.754 12.912 C 201.554 14.843, 199.303 18.631, 197.069 24.162 C 195.217 28.748, 193.131 33.850, 192.434 35.500 C 190.969 38.971, 181.252 62.780, 171.010 88 C 167.101 97.625, 161.815 110.548, 159.263 116.717 L 154.623 127.935 148.562 130.436 C 135.715 135.737, 131.479 136.494, 115 136.439 C 98.793 136.385, 94.846 135.722, 79.332 130.440 C 67.606 126.448, 54.370 127.478, 44.168 133.174 C 33.767 138.982, 28.505 144.675, 23.358 155.684 C 20.439 161.930, 20.002 163.890, 20.015 170.684 C 20.033 179.787, 21.283 183.939, 26.382 191.818 C 30.646 198.407, 36.844 203.036, 45.506 206.101 C 50.455 207.852, 53.075 208.141, 60.534 207.761 C 65.503 207.508, 70.604 206.747, 71.870 206.070 C 73.136 205.392, 74.334 205.001, 74.533 205.200 C 74.733 205.399, 71.118 207.559, 66.501 209.999 C 56.956 215.045, 54.297 218.756, 55.240 225.715 C 55.528 227.844, 60.480 238.339, 66.558 249.704 C 78.258 271.579, 79.445 272.889, 86.392 271.586 C 88.276 271.233, 91.096 269.680, 92.659 268.135 C 95.483 265.342, 104.381 260, 106.208 260 C 106.733 260, 109.769 258.473, 112.954 256.606 L 118.746 253.212 119.406 259.657 C 120.859 273.837, 128.564 285.303, 140.453 290.978 C 146.111 293.678, 147.783 293.999, 156.143 293.990 C 164.023 293.982, 166.351 293.584, 170.895 291.469 C 183.300 285.694, 191.822 276.365, 196.029 263.954 C 197.876 258.504, 198.146 255.945, 197.762 247.500 C 197.333 238.043, 197.056 236.987, 192.656 228.048 C 190.097 222.850, 188.340 218.283, 188.752 217.900 C 189.163 217.516, 196.475 213.650, 205 209.309 C 213.525 204.968, 221.512 200.872, 222.750 200.208 C 225.348 198.813, 224.828 199.081, 243.935 189.283 C 251.946 185.174, 270.425 175.748, 285 168.334 C 299.575 160.921, 311.928 154.438, 312.450 153.928 C 312.972 153.417, 314.631 153, 316.135 153 C 322.405 153, 328 148.663, 328 143.802 C 328 142.220, 323.405 131.800, 317.534 120.068 C 302.304 89.634, 301.769 89.381, 278.220 101.493 C 270.207 105.613, 263.510 108.843, 263.337 108.670 C 263.164 108.497, 264.930 107.300, 267.261 106.010 C 276.678 100.798, 291.547 91.632, 292.259 90.599 C 296.472 84.495, 291.220 76, 283.234 76 C 280.849 76, 269.046 80.346, 253.500 86.949 C 244.346 90.837, 214.827 102.895, 201.939 108.011 L 197.378 109.822 200.661 96.661 C 219.786 19.988, 220.132 17.978, 215.077 12.923 C 211.352 9.198, 207.986 9.195, 203.754 12.912 M 208.403 19.082 C 207.800 19.862, 205.606 24.775, 203.527 30 C 198.886 41.665, 188.223 67.772, 186.985 70.500 C 186.485 71.600, 182.273 81.950, 177.623 93.500 C 172.974 105.050, 167.523 118.325, 165.511 123 C 163.499 127.675, 161.830 132.478, 161.802 133.674 C 161.773 134.870, 163.166 139.249, 164.896 143.405 L 168.042 150.963 163.740 161.217 L 159.438 171.471 153.469 174.558 C 150.186 176.256, 133.100 185.005, 115.500 193.999 C 63.089 220.784, 63.983 220.292, 63.370 222.697 C 62.806 224.907, 64.452 228.482, 76.174 250.509 C 83.999 265.215, 83.602 264.678, 85.697 263.399 C 89.227 261.244, 88.393 257.488, 81.460 244.312 C 75.371 232.741, 74.936 231.520, 76.490 230.383 C 77.428 229.698, 78.713 229.341, 79.347 229.591 C 79.981 229.840, 83.425 235.919, 87 243.098 C 90.575 250.278, 93.881 256.396, 94.346 256.694 C 94.811 256.993, 95.799 256.621, 96.542 255.868 C 97.677 254.717, 96.793 252.333, 90.973 240.849 C 85.306 229.666, 84.301 226.995, 85.416 226.070 C 86.974 224.776, 88.721 227.432, 96.390 242.750 C 99.902 249.766, 101.501 252, 103.010 252 C 104.105 252, 105 251.492, 105 250.871 C 105 250.249, 102.075 243.974, 98.500 236.926 C 91.732 223.582, 91.175 221.999, 93.250 222.001 C 93.938 222.002, 97.626 228.077, 101.448 235.501 C 107.976 248.186, 110.311 250.960, 111.610 247.574 C 111.911 246.790, 109.132 240.240, 105.434 233.019 C 100.385 223.159, 98.996 219.604, 99.855 218.745 C 101.442 217.158, 101.854 217.742, 109.130 231.871 C 115.423 244.094, 117.161 246.239, 119.155 244.245 C 119.849 243.551, 117.921 238.802, 113.127 229.397 C 106.474 216.345, 105.887 214.096, 109.113 214.015 C 109.451 214.007, 112.826 220.073, 116.613 227.495 C 121.347 236.770, 124.029 240.991, 125.191 240.995 C 126.121 240.998, 127.102 240.645, 127.370 240.210 C 127.638 239.776, 124.698 233.202, 120.837 225.603 C 115.528 215.156, 114.098 211.506, 114.975 210.642 C 116.534 209.107, 117.595 210.649, 125.108 225.371 L 131.249 237.406 129.410 242.453 C 126.914 249.299, 126.957 260.816, 129.503 267.806 C 131.837 274.214, 138.670 281.501, 144.815 284.135 C 147.729 285.384, 151.563 286, 156.423 286 C 162.500 286, 164.666 285.508, 169.738 282.973 C 177.020 279.334, 183.233 272.868, 186.840 265.175 C 189.164 260.216, 189.500 258.239, 189.500 249.500 C 189.500 239.905, 189.351 239.217, 185.810 232.500 C 180.441 222.315, 177.710 214.890, 178.898 213.702 C 179.551 213.049, 179.106 211.146, 177.588 208.106 C 175.067 203.058, 173.587 196, 175.050 196 C 175.559 196, 177.561 199.150, 179.500 203 C 182.086 208.136, 183.554 210, 185.013 210 C 186.106 210, 187 209.492, 187 208.871 C 187 208.249, 184.075 201.974, 180.500 194.926 C 176.925 187.877, 174 181.636, 174 181.055 C 174 180.475, 174.787 180.011, 175.750 180.025 C 176.986 180.043, 179.409 183.883, 184 193.101 C 187.575 200.278, 190.881 206.395, 191.346 206.694 C 191.811 206.992, 192.801 206.621, 193.546 205.868 C 194.687 204.716, 193.806 202.343, 187.950 190.809 C 183.570 182.181, 181.394 176.874, 182.066 176.459 C 183.585 175.520, 183.768 175.791, 191.060 189.760 C 194.683 196.703, 198.065 202.514, 198.574 202.675 C 199.083 202.836, 200.120 202.575, 200.878 202.096 C 201.971 201.404, 200.780 198.376, 195.110 187.432 C 189.778 177.142, 188.285 173.436, 189.232 172.836 C 189.929 172.393, 190.736 172.024, 191.024 172.015 C 191.312 172.007, 194.668 178.075, 198.482 185.500 C 203.480 195.232, 205.916 199, 207.208 199 C 210.114 199, 209.366 196.545, 202.304 182.915 C 197.110 172.889, 195.877 169.723, 196.804 168.796 C 198.487 167.113, 198.988 167.807, 206.508 182.236 C 210.160 189.241, 213.513 195.199, 213.960 195.475 C 214.407 195.752, 215.316 195.324, 215.979 194.525 C 216.955 193.349, 215.916 190.576, 210.516 179.957 C 204.483 168.092, 203.277 164, 205.816 164 C 206.299 164, 209.801 170.070, 213.597 177.489 C 220.024 190.048, 222.106 192.561, 224.282 190.385 C 224.621 190.046, 221.807 183.600, 218.031 176.061 C 213.318 166.654, 211.439 161.908, 212.040 160.935 C 213.290 158.913, 213.910 159.803, 221.501 174.500 C 225.194 181.650, 228.403 187.698, 228.632 187.940 C 228.860 188.183, 229.753 187.676, 230.614 186.814 C 232.037 185.392, 231.574 184.050, 225.591 172.253 C 218.647 158.563, 218.014 156.653, 220.594 157.177 C 221.471 157.355, 225.183 163.204, 228.844 170.175 C 232.505 177.147, 235.827 183.173, 236.226 183.568 C 236.625 183.962, 237.632 183.720, 238.464 183.030 C 239.783 181.935, 239.078 180.027, 232.980 168.181 C 227.064 156.687, 226.194 154.377, 227.350 153.221 C 228.962 151.610, 229.642 152.628, 238.058 169.245 C 243.236 179.470, 245.375 181.793, 246.621 178.546 C 246.927 177.747, 244.213 171.247, 240.589 164.102 C 236.965 156.956, 234 150.636, 234 150.055 C 234 149.475, 234.787 149.007, 235.750 149.016 C 236.988 149.027, 239.440 152.895, 244.126 162.225 C 247.771 169.481, 251.146 175.541, 251.626 175.692 C 252.107 175.844, 253.131 175.568, 253.903 175.080 C 255.030 174.367, 253.895 171.425, 248.112 160.081 C 242.110 148.307, 241.184 145.867, 242.526 145.352 C 244.710 144.513, 244.911 144.798, 251.943 158.727 C 255.338 165.451, 258.536 171.213, 259.050 171.531 C 259.564 171.848, 260.683 171.717, 261.538 171.239 C 262.852 170.504, 262.004 168.243, 256.046 156.589 C 252.170 149.010, 249.251 142.402, 249.559 141.905 C 251.047 139.496, 253.033 142.055, 259.336 154.501 C 265.788 167.241, 268.242 170.139, 269.594 166.616 C 269.886 165.855, 267.131 159.353, 263.472 152.167 C 257.572 140.582, 256.117 135.718, 259.102 137.563 C 259.631 137.890, 262.961 143.937, 266.500 151 C 270.039 158.063, 273.349 164.097, 273.854 164.410 C 274.360 164.722, 275.321 164.318, 275.990 163.512 C 276.980 162.319, 275.966 159.608, 270.535 148.921 C 264.418 136.884, 263.291 133, 265.916 133 C 266.454 133, 269.955 139.070, 273.696 146.488 C 277.436 153.907, 280.988 160.165, 281.589 160.396 C 282.190 160.626, 283.274 160.449, 283.999 160.001 C 285.009 159.376, 283.721 156.060, 278.478 145.783 C 273.721 136.457, 271.859 131.811, 272.357 130.512 C 273.421 127.740, 274.863 129.662, 281.423 142.593 C 288.741 157.019, 289.323 157.807, 291.387 156.094 C 292.825 154.900, 292.271 153.386, 285.976 141.316 C 282.119 133.920, 279.223 127.448, 279.541 126.934 C 281.044 124.501, 283.012 127.014, 289.387 139.505 C 293.174 146.927, 296.549 152.993, 296.887 152.985 C 297.224 152.976, 298.175 152.535, 299 152.004 C 300.260 151.194, 299.335 148.792, 293.218 137 C 287.175 125.352, 286.208 122.857, 287.535 122.348 C 289.733 121.505, 290.026 121.909, 297.052 135.500 C 304.309 149.537, 304.438 149.711, 306.419 148.067 C 307.726 146.983, 307.017 145.011, 301 133 C 294.983 120.989, 294.274 119.017, 295.581 117.933 C 297.640 116.224, 298.130 116.856, 304.853 129.882 C 311.330 142.433, 313.186 145.007, 315.740 144.985 C 320.411 144.944, 320.094 143.635, 310.890 124.948 C 301.814 106.519, 298.923 102, 296.211 102 C 295.419 102, 287.960 105.543, 279.636 109.873 C 271.311 114.203, 251.675 124.295, 236 132.299 C 220.325 140.303, 200.667 150.364, 192.316 154.658 C 183.965 158.952, 176.860 162.193, 176.527 161.860 C 176.194 161.527, 176.872 157.710, 178.034 153.378 C 180.501 144.172, 182.709 135.342, 190.880 102 C 194.182 88.525, 199.859 65.403, 203.495 50.618 C 209.651 25.590, 211.233 15.425, 208.403 19.082 M 266.500 90.435 C 258.250 93.882, 244.075 99.719, 235 103.406 C 225.925 107.093, 217.600 110.523, 216.500 111.028 C 215.400 111.533, 209.325 114.028, 203 116.572 C 196.675 119.116, 191.122 121.553, 190.660 121.989 C 189.662 122.929, 184.763 142.790, 185.204 144.111 C 185.371 144.613, 208.097 131.665, 235.705 115.337 C 263.313 99.008, 285.672 85.278, 285.391 84.824 C 284.443 83.290, 281.535 84.153, 266.500 90.435 M 168.408 132.500 C 166.891 134.816, 166.891 135.184, 168.408 137.500 C 170.356 140.472, 173.985 140.779, 176.345 138.171 C 178.496 135.794, 178.440 133.709, 176.171 131.655 C 173.530 129.265, 170.297 129.617, 168.408 132.500 M 54.487 137.799 C 42.660 141.889, 35.331 148.481, 30.522 159.355 C 24.287 173.454, 30.171 190.010, 43.792 196.696 C 48.807 199.157, 50.593 199.490, 58.500 199.434 C 68.507 199.364, 72.548 197.963, 85.268 190.155 C 88.990 187.870, 92.257 186, 92.529 186 C 92.800 186, 96.504 183.826, 100.761 181.170 C 105.017 178.513, 119.075 170.120, 132 162.518 C 163.637 143.911, 161.323 145.710, 159.436 141.190 C 158.589 139.161, 157.549 137.152, 157.125 136.727 C 156.701 136.302, 153.912 137.015, 150.927 138.312 C 138.680 143.635, 133.666 144.491, 115 144.445 C 96.695 144.400, 91.250 143.509, 75.775 138.028 C 68.816 135.563, 61.190 135.481, 54.487 137.799 M 58.275 146.971 C 52.318 148.386, 45.535 153.761, 41.201 160.500 C 39.123 163.732, 38.616 165.779, 38.564 171.156 C 38.506 177.159, 38.805 178.190, 41.606 181.656 C 46.494 187.704, 50.368 189.501, 58.500 189.491 C 67.030 189.480, 73.403 186.622, 78.951 180.319 C 93.633 163.639, 80.086 141.789, 58.275 146.971 M 60.365 154.908 C 50.882 157.304, 44.253 167.884, 47.447 175.528 C 48.920 179.053, 53.612 182.007, 57.718 181.994 C 65.092 181.971, 74.161 175.533, 76.144 168.913 C 79.038 159.256, 71.088 152.200, 60.365 154.908 M 146.454 163.384 C 141.529 166.305, 126.250 175.362, 112.500 183.511 C 98.750 191.659, 87.050 198.759, 86.500 199.287 C 85.950 199.815, 92.925 196.423, 102 191.748 C 111.075 187.073, 126.287 179.295, 135.804 174.463 C 151.355 166.568, 153.255 165.324, 154.567 162.186 C 155.370 160.265, 155.887 158.554, 155.717 158.383 C 155.546 158.213, 151.378 160.463, 146.454 163.384 M 144.079 195.951 C 142.877 196.694, 142.940 197.259, 144.483 199.615 L 146.308 202.400 147.188 200.020 C 148.255 197.137, 146.300 194.578, 144.079 195.951 M 136.589 199.856 C 135.949 200.892, 141.020 211, 142.180 211 C 143.678 211, 143.029 207.243, 140.814 203.095 C 138.640 199.021, 137.598 198.223, 136.589 199.856 M 128.726 203.607 C 127.935 204.398, 136.399 220.300, 137.873 220.791 C 140.001 221.500, 138.996 216.942, 135.487 209.975 C 132.304 203.654, 130.438 201.896, 128.726 203.607 M 122 208.017 C 122 210.263, 133.125 231.041, 134.029 230.482 C 134.563 230.152, 135 229.415, 135 228.844 C 135 226.625, 124.456 207, 123.263 207 C 122.568 207, 122 207.457, 122 208.017 M 156.224 229.509 C 148.388 231.883, 143.247 236.357, 139.855 243.751 C 135.750 252.702, 136.467 262.386, 141.743 269.242 C 145.336 273.912, 149.834 276, 156.299 276 C 168.815 276, 178.901 265.386, 179.825 251.240 C 180.825 235.933, 169.484 225.491, 156.224 229.509 M 154.389 238.905 C 142.912 245.903, 142.355 265.475, 153.572 267.580 C 168.166 270.317, 178.794 246.973, 166.783 238.561 C 163.764 236.446, 158.166 236.601, 154.389 238.905" stroke="none" fill="#ffffff" fill-rule="evenodd"/></svg>